<?xml version="1.0" encoding="UTF-8"?>
<!-- Generator: visioncortex VTracer 0.6.2 -->
<svg version="1.1" xmlns="http://www.w3.org/2000/svg" width="1280" height="1096">
<path d="M0 0 C422.4 0 844.8 0 1280 0 C1280 361.68 1280 723.36 1280 1096 C857.6 1096 435.2 1096 0 1096 C0 734.32 0 372.64 0 0 Z " fill="#FBFDFD" transform="translate(0,0)"/>
<path d="M0 0 C1.0111084 0.11746582 2.0222168 0.23493164 3.06396484 0.35595703 C9.39941298 1.10060252 15.70142892 1.99095219 22 3 C23.01771484 3.16193848 24.03542969 3.32387695 25.08398438 3.49072266 C73.79999427 11.43163757 120.91092725 28.71160393 163.50878906 53.55908203 C165.64590058 54.79518867 167.79418932 56.00054698 169.9609375 57.18359375 C184.24687679 65.045764 197.20128766 74.94757006 210 85 C211.20076172 85.90878906 211.20076172 85.90878906 212.42578125 86.8359375 C262.04585209 125.03088278 302.4639364 183.58522218 319 244 C319.21108398 244.75861328 319.42216797 245.51722656 319.63964844 246.29882812 C328.84914577 280.02641455 331.9262651 321.72331781 323 356 C322.08211088 359.37033135 322.08211088 359.37033135 323 363 C326.03196109 365.79064174 329.5153904 367.82089202 333 370 C366.40103253 394.31311909 391.32533866 427.55947672 398 469 C400.23376327 486.36225916 399.83127539 503.92095805 396 521 C395.83902832 521.75555176 395.67805664 522.51110352 395.51220703 523.28955078 C389.96872951 548.80232773 377.63839697 570.92591956 360 590 C359.23945312 590.83144531 358.47890625 591.66289063 357.6953125 592.51953125 C349.01846812 601.59366704 339.34380179 608.5621563 328.3125 614.4375 C327.54115723 614.85056396 326.76981445 615.26362793 325.97509766 615.68920898 C320.48574969 618.5108201 314.95852885 620.41163249 309 622 C309.2165625 623.0003125 309.433125 624.000625 309.65625 625.03125 C318.16501442 668.41332425 310.31574434 716.40014399 285.83203125 753.4296875 C259.88577249 789.83190129 222.64032712 812.43994033 178.87890625 820.421875 C170.96886089 821.60081429 163.13074028 822.16839436 155.13671875 822.23828125 C154.22404739 822.246353 153.31137604 822.25442474 152.37104797 822.26274109 C150.44749794 822.27647832 148.52392458 822.28724605 146.6003418 822.29516602 C144.67806592 822.30660526 142.75581973 822.32692674 140.83374023 822.35668945 C119.99184708 822.67788608 101.19446151 819.59501937 82.07324219 811.14892578 C78.66693204 809.54498644 78.66693204 809.54498644 75 809 C74.76152344 809.84304688 74.52304687 810.68609375 74.27734375 811.5546875 C72.83612666 815.44200699 70.8685629 818.71147563 68.5625 822.125 C68.12075439 822.78097168 67.67900879 823.43694336 67.22387695 824.11279297 C63.12348819 830.0574551 58.51608611 835.34973441 53.45947266 840.50097656 C51.95214561 842.04915122 50.48168753 843.62730889 49.01171875 845.2109375 C26.95797064 868.57484367 -3.82879133 883.43653662 -35 890 C-35.7849585 890.18095215 -36.56991699 890.3619043 -37.37866211 890.54833984 C-46.95414064 892.4828668 -56.58215387 892.30204835 -66.30737305 892.26074219 C-69.29561839 892.25006035 -72.28325772 892.26066415 -75.27148438 892.2734375 C-86.03455427 892.28142603 -96.37062057 891.82683183 -107 890 C-108.22360229 889.80349854 -108.22360229 889.80349854 -109.47192383 889.60302734 C-150.95016039 882.72765024 -189.51298519 861.26404228 -214.74902344 827.22827148 C-219.97468902 819.90553269 -224.13202051 812.10634003 -228 804 C-228.54140625 802.87464844 -229.0828125 801.74929688 -229.640625 800.58984375 C-233.37348378 792.34808449 -236.07935627 783.83983849 -238.72900391 775.19848633 C-239.15125244 773.82213013 -239.15125244 773.82213013 -239.58203125 772.41796875 C-239.83186768 771.59063232 -240.0817041 770.7632959 -240.33911133 769.91088867 C-240.83875234 768.01553274 -240.83875234 768.01553274 -242 767 C-244.02747472 767.21555586 -246.04733358 767.50230273 -248.0625 767.8125 C-255.04376824 768.81713634 -262.03573846 769.52201261 -269.0625 770.125 C-270.03002197 770.21241455 -270.99754395 770.2998291 -271.99438477 770.38989258 C-285.24578206 771.4938983 -298.34184162 770.98110216 -311.5625 769.8125 C-312.30401306 769.74753326 -313.04552612 769.68256653 -313.80950928 769.6156311 C-332.17869354 767.96425501 -348.90848065 763.9147404 -366 757 C-366.84949219 756.70867188 -367.69898438 756.41734375 -368.57421875 756.1171875 C-382.16773085 751.36292011 -394.87504044 741.96345247 -406 733 C-406.54527344 732.56155762 -407.09054687 732.12311523 -407.65234375 731.67138672 C-414.35957336 726.24362579 -420.5504053 720.71952287 -426 714 C-426.75539063 713.14277344 -427.51078125 712.28554688 -428.2890625 711.40234375 C-442.04839775 695.57697828 -451.45326791 677.54666602 -457.3125 657.4375 C-457.65812988 656.25377808 -457.65812988 656.25377808 -458.01074219 655.04614258 C-461.9111525 640.82339089 -463.47987937 627.10551699 -463.33618164 612.39672852 C-463.31242105 609.80388507 -463.31567406 607.21206697 -463.32226562 604.61914062 C-463.25728713 566.39224686 -450.13685702 531.65286834 -425 503 C-427.41561299 500.2415938 -429.87086649 498.96147605 -433.19921875 497.46875 C-434.75431152 496.75609985 -434.75431152 496.75609985 -436.34082031 496.02905273 C-437.99742676 495.27217163 -437.99742676 495.27217163 -439.6875 494.5 C-455.59984995 487.03327855 -468.97684146 477.73495993 -482 466 C-482.78632813 465.29746094 -483.57265625 464.59492187 -484.3828125 463.87109375 C-506.40422296 443.07309499 -520.77978047 413.32389208 -527 384 C-527.21269531 383.06800781 -527.42539062 382.13601563 -527.64453125 381.17578125 C-529.7608632 371.47719527 -530.19593286 361.65101794 -530.1875 351.75 C-530.18669434 350.74928467 -530.18588867 349.74856934 -530.18505859 348.7175293 C-530.11884479 340.65048105 -529.36137238 332.95879239 -528 325 C-527.86722656 324.00484375 -527.73445312 323.0096875 -527.59765625 321.984375 C-524.20120515 297.78870432 -512.50525015 271.16960819 -497.9609375 251.640625 C-496.34933289 249.47041641 -494.81073826 247.27978013 -493.2890625 245.046875 C-487.09638856 236.00429588 -480.57700401 227.91483221 -473 220 C-471.80280723 218.6543949 -470.61415521 217.30110043 -469.4375 215.9375 C-468.89609375 215.31746094 -468.3546875 214.69742188 -467.796875 214.05859375 C-466.42883302 212.49129348 -465.06501017 210.92030936 -463.703125 209.34765625 C-458.97277029 203.99295348 -454.19155596 199.31383049 -448.515625 194.9765625 C-445.80714988 192.8484749 -443.28561049 190.58063599 -440.75 188.25 C-437.32126554 185.13006461 -433.93984819 182.46240512 -430 180 C-428.62425982 179.00101854 -427.24937849 178.00085402 -425.875 177 C-404.40967267 162.04125035 -380.82755307 150.23156284 -356 142 C-354.26943359 141.42185547 -354.26943359 141.42185547 -352.50390625 140.83203125 C-346.51770359 138.9196703 -340.4636217 137.29827879 -334.375 135.75 C-333.68704346 135.5744458 -332.99908691 135.3988916 -332.2902832 135.21801758 C-329.44363438 134.51355645 -326.94529792 134 -324 134 C-323.75636719 133.31292969 -323.51273438 132.62585938 -323.26171875 131.91796875 C-321.77525403 128.48023146 -319.86105957 125.43203384 -317.8125 122.3125 C-317.4117627 121.69745605 -317.01102539 121.08241211 -316.59814453 120.44873047 C-311.1835602 112.17710721 -305.66378603 104.31901186 -299 97 C-298.32195312 96.23042969 -297.64390625 95.46085937 -296.9453125 94.66796875 C-289.3640672 86.10197095 -281.61534572 77.6310315 -272.40625 70.7890625 C-270.65142569 69.48433923 -268.9258176 68.1400506 -267.21875 66.7734375 C-221.90540104 30.7287281 -162.72727657 10.03996172 -106 1 C-104.94941406 0.81824219 -103.89882813 0.63648437 -102.81640625 0.44921875 C-99.55020914 -0.09584089 -96.28218335 -0.56116665 -93 -1 C-92.35401855 -1.09168457 -91.70803711 -1.18336914 -91.04248047 -1.27783203 C-61.02373621 -5.38551387 -29.96703599 -3.63301636 0 0 Z " fill="#030606" transform="translate(666,127)"/>
<path d="M0 0 C-0.58007812 1.17691406 -1.16015625 2.35382813 -1.7578125 3.56640625 C-8.97838148 18.61932558 -14.47718807 33.85186037 -15.609375 50.625 C-15.7017041 51.92187744 -15.7940332 53.21875488 -15.88916016 54.55493164 C-16.04285858 57.08522781 -16.1440996 59.61942371 -16.18505859 62.15405273 C-16.48116422 67.43898977 -16.67320186 70.72977511 -20.60522461 74.49414062 C-23.66123004 76.53820353 -26.75170423 78.28270871 -30 80 C-58.85247428 99.05370563 -82.30737921 129.75865857 -89.44140625 163.9375 C-95.03461757 194.60237883 -88.05400507 226.82910062 -70.82275391 252.77246094 C-55.69990072 274.27536321 -33.68474218 290.63910728 -8 297 C-7.34580078 297.17660156 -6.69160156 297.35320312 -6.01757812 297.53515625 C1.76652528 299.39961216 9.61728769 299.37220991 17.57373047 299.37060547 C19.96786714 299.3749418 22.36009853 299.41125311 24.75390625 299.44921875 C48.66364745 299.62300999 70.74952143 292.21258737 90 278 C89.67 277.01 89.34 276.02 89 275 C84.71374694 277.33164229 80.49967238 279.63772933 76.5 282.4375 C72.5295763 284.93973521 68.33199324 286.53683726 63.9375 288.125 C63.28394531 288.36661865 62.63039063 288.6082373 61.95703125 288.85717773 C49.43863302 293.20202579 37.07821846 294.5177393 23.93920898 294.44604492 C21.56731619 294.43751732 19.19783032 294.46646394 16.82617188 294.49804688 C-6.35134669 294.60323894 -27.10519854 286.65629612 -44.1796875 270.83203125 C-50.49828312 264.47275797 -54.89683939 257.77810416 -58.8125 249.75 C-59.37215454 248.62609863 -59.37215454 248.62609863 -59.94311523 247.47949219 C-65.26618231 236.06791814 -66.54221703 224.15301483 -66.4375 211.6875 C-66.43065186 210.42292969 -66.42380371 209.15835938 -66.41674805 207.85546875 C-66.2490663 198.04828438 -65.10239724 189.28684814 -62 180 C-61.63777344 178.89527344 -61.27554688 177.79054688 -60.90234375 176.65234375 C-52.4378227 153.03776468 -38.70117224 132.6220821 -18.12109375 117.9765625 C-16 117 -16 117 -13.88671875 116.8515625 C-10.69200925 118.79616828 -10.32847727 122.33038603 -9.375 125.75 C-4.26817867 142.34549165 3.26042045 157.36694695 14 171 C14.99966797 172.3303125 14.99966797 172.3303125 16.01953125 173.6875 C28.96388021 190.55997115 45.95459252 203.05579454 64 214 C65.6396875 215.01320313 65.6396875 215.01320313 67.3125 216.046875 C84.45010428 226.28183311 103.38053452 233.095856 122.75 237.6875 C123.58184814 237.89012451 124.41369629 238.09274902 125.27075195 238.30151367 C140.92250201 241.83987498 156.83502689 242.31674766 172.8125 242.1875 C174.56640489 242.1806322 176.32031122 242.17412509 178.07421875 242.16796875 C190.39919809 242.10569318 202.69830262 241.79001726 215 241 C217.03942678 246.14117335 218.56760308 250.97409464 219.5625 256.4375 C219.79066406 257.65308594 220.01882813 258.86867188 220.25390625 260.12109375 C222.36408861 273.24669349 223.37811155 286.15250913 223.3125 299.4375 C223.30976578 300.5999675 223.30976578 300.5999675 223.30697632 301.78591919 C223.20906377 326.7236388 220.80605589 351.84367767 211 375 C198.23288275 371.35225221 185.75262064 364.73521857 175 357 C174.13761719 356.38125 173.27523438 355.7625 172.38671875 355.125 C163.88082137 348.30995627 157.78123135 337.82085213 156 327 C154.72808642 311.29911231 155.4453577 297.67481128 165.953125 285.14453125 C169.74154825 281.17536262 173.82401675 277.55420707 178 274 C176.68 273.34 175.36 272.68 174 272 C158.72831418 281.20633542 144.97015574 297.24046244 137.9375 313.6875 C137.20853516 315.36392578 137.20853516 315.36392578 136.46484375 317.07421875 C132.96198781 326.05784657 131.43989858 334.48623463 131.5 344.125 C131.50644531 345.2166748 131.51289063 346.30834961 131.51953125 347.43310547 C131.91567174 365.13693659 138.37842515 383.01212755 150.80859375 395.953125 C159.94219214 404.4843292 170.01267035 412.02862519 181 418 C181 418.66 181 419.32 181 420 C181.66 420 182.32 420 183 420 C181.62833912 423.07219952 180.06111523 425.19544655 177.69140625 427.57421875 C177.03245361 428.23736084 176.37350098 428.90050293 175.69458008 429.58374023 C174.99099365 430.27798096 174.28740723 430.97222168 173.5625 431.6875 C172.83893311 432.40429932 172.11536621 433.12109863 171.36987305 433.85961914 C162.0183918 443.03244274 151.90120972 450.76295288 141 458 C139.63101563 458.93392578 139.63101563 458.93392578 138.234375 459.88671875 C109.68939123 478.48775326 72.8765713 493.00670553 38.3984375 493.203125 C37.5995108 493.20882507 36.80058411 493.21452515 35.97744751 493.22039795 C34.2950368 493.22978601 32.61260822 493.23635706 30.93017578 493.24023438 C28.40232873 493.24989555 25.87531175 493.28095975 23.34765625 493.3125 C10.54861815 493.39812228 -1.7094733 492.49957777 -13.25 486.375 C-13.91547852 486.02945068 -14.58095703 485.68390137 -15.26660156 485.32788086 C-23.39024717 480.93429987 -31.02091185 475.45055428 -34.328125 466.51171875 C-36.57806481 458.10060657 -37.35277615 449.68221296 -37 441 C-36.030625 441.86625 -35.06125 442.7325 -34.0625 443.625 C-22.48071624 453.50220671 -13.41689667 457.21144613 2 456 C8.52331452 454.79267206 15.24717184 451.91503115 19.16870117 446.33789062 C22.15394723 440.75395614 22.63045377 435.9600578 22.5 429.6875 C22.48791504 428.75977783 22.47583008 427.83205566 22.46337891 426.8762207 C22.26401789 419.99101607 21.42177774 414.08434855 18 408 C17.38125 406.88431641 17.38125 406.88431641 16.75 405.74609375 C13.02714178 400.00316189 8.250927 397.48627853 2 395 C0.9275 394.566875 -0.145 394.13375 -1.25 393.6875 C-15.14988902 391.13918701 -27.12104559 393.53368545 -39 401 C-47.18162004 408.04940244 -53.23792299 418.58014255 -54.22119141 429.44384766 C-54.67938223 440.08752308 -55.08534425 450.36962932 -50 460 C-49.38125 461.35738281 -49.38125 461.35738281 -48.75 462.7421875 C-41.42826904 477.76005612 -26.61777308 488.1801168 -11.19433594 493.91894531 C1.61140821 498.25277557 14.00016178 498.52549794 27.375 498.4375 C28.35043762 498.43445862 29.32587524 498.43141724 30.33087158 498.42828369 C45.25463448 498.35942315 59.45568885 497.59436239 74 494 C74.91217285 493.78569336 75.8243457 493.57138672 76.76416016 493.35058594 C102.86797503 487.13560731 128.58081131 476.83813355 151 462 C151.76828125 461.51273438 152.5365625 461.02546875 153.328125 460.5234375 C165.49163053 452.69154005 176.70828426 443.399414 186.875 433.125 C191.90908212 428.07918342 191.90908212 428.07918342 194 427 C198.06961101 427.44385427 201.44983257 428.43667 205.16796875 430.1171875 C206.13460449 430.55361572 207.10124023 430.99004395 208.09716797 431.43969727 C209.11697754 431.91334717 210.13678711 432.38699707 211.1875 432.875 C212.24598145 433.36605225 213.30446289 433.85710449 214.39501953 434.36303711 C235.46835704 444.29489633 253.48273435 454.32245168 262.1953125 477.12890625 C263.34943275 482.68100902 263.36855748 488.0934686 263.375 493.75 C263.39949219 494.86632812 263.42398437 495.98265625 263.44921875 497.1328125 C263.4842559 507.15343674 260.72312305 515.26222235 256 524 C266.50198205 520.87175003 273.63834572 510.0942892 279 501 C285.07705078 488.71987664 287.37389403 478.50120439 287.37060547 464.84545898 C287.37495581 462.83294462 287.4113145 460.8226721 287.44921875 458.81054688 C287.51269149 437.26155248 278.4526354 418.99140942 263.6875 403.65625 C253.89163566 393.97429106 241.28428125 387.94611486 229 382 C229 377.96885883 230.79890016 375.17372794 232.625 371.6875 C245.47252109 346.54993273 252.99062518 320.84421767 257 293 C257.18006592 291.80866455 257.18006592 291.80866455 257.36376953 290.59326172 C258.98943724 279.56730979 259.17803218 268.56282543 259.1875 257.4375 C259.18858765 256.7463208 259.18967529 256.0551416 259.1907959 255.34301758 C259.18939719 247.50560989 259.00332342 239.77835428 258 232 C261.80829974 229.59066751 265.62332941 227.21003831 269.51953125 224.9453125 C278.07751193 219.95004445 285.95821934 214.6910481 293.24609375 207.91015625 C293.94863281 207.25917969 294.65117188 206.60820312 295.375 205.9375 C295.98085938 205.34839844 296.58671875 204.75929688 297.2109375 204.15234375 C299 203 299 203 300.82421875 203.03125 C304.00274829 204.44646603 306.66908842 206.48705226 309.4375 208.5625 C315.29247621 212.86646339 321.29038416 216.72099816 327.55078125 220.40625 C330 222 330 222 331 224 C331.10408425 225.53282695 331.14650359 227.07004169 331.15821838 228.60635376 C331.1680072 229.5767308 331.17779602 230.54710785 331.18788147 231.54689026 C331.19363693 232.61503464 331.1993924 233.68317902 331.20532227 234.78369141 C331.21522186 235.90564407 331.22512146 237.02759674 331.23532104 238.18354797 C331.26700527 241.90619774 331.29172084 245.62886028 331.31640625 249.3515625 C331.3369698 251.92703592 331.3579661 254.50250592 331.37937927 257.07797241 C331.42900595 263.17297142 331.4742552 269.26798865 331.51740164 275.36303651 C331.56676018 282.30131344 331.62168342 289.23954279 331.67708123 296.17777371 C331.79092615 310.45180447 331.89775972 324.72588165 332 339 C329.75511362 337.72222827 327.51081706 336.44343938 325.2668457 335.1640625 C324.63488533 334.80449463 324.00292496 334.44492676 323.35181427 334.07446289 C308.00207657 325.31801655 295.47427906 314.47427906 283 302 C283.66641719 309.11683263 289.86355139 312.71759635 295 317 C295.52819336 317.44682129 296.05638672 317.89364258 296.60058594 318.35400391 C304.2698905 324.79780103 312.30159002 330.25562328 320.95922852 335.29663086 C322.05062134 335.93677124 322.05062134 335.93677124 323.1640625 336.58984375 C324.13013428 337.14466431 324.13013428 337.14466431 325.11572266 337.71069336 C328.24649315 339.85290623 330.71016057 341.60484331 331.50780869 345.44436264 C331.51333944 346.82152136 331.51333944 346.82152136 331.51898193 348.22650146 C331.53985115 349.81240334 331.53985115 349.81240334 331.56114197 351.43034363 C331.55359642 353.16203545 331.55359642 353.16203545 331.54589844 354.92871094 C331.55623611 356.14849136 331.56657379 357.36827179 331.57722473 358.62501526 C331.60166131 361.96584838 331.60848941 365.30584824 331.60750484 368.6467123 C331.61063373 372.13949819 331.63625133 375.6321173 331.65948486 379.12481689 C331.70005051 385.73684256 331.72038682 392.3487696 331.73345876 398.96090055 C331.74932696 406.4893545 331.78774174 414.01764056 331.82805204 421.54599714 C331.91045863 437.03061486 331.9645459 452.5151993 332 468 C333.65 468.33 335.3 468.66 337 469 C337 428.41 337 387.82 337 346 C342.11097293 346.85182882 346.17627395 348.16282472 350.875 350.125 C359.43266602 353.62003913 368.15500471 356.16671281 377.11474609 358.42626953 C384.43967883 360.396656 384.43967883 360.396656 387.13671875 363.30078125 C388.13722907 366.4290737 388.57504738 369.28862688 388.875 372.5625 C390.27665057 384.64282734 393.61532552 396.34167679 397 408 C395.16776699 409.68870809 393.33438563 411.37613238 391.5 413.0625 C390.95045654 413.56837646 390.40091309 414.07425293 389.8347168 414.59545898 C386.87442896 417.31205533 383.88369956 419.9709807 380.8125 422.5625 C361.97002311 439.03020191 341.58751039 470.13287695 338.6875 495.76171875 C338.8421875 496.86966797 338.8421875 496.86966797 339 498 C339.99 498.66 340.98 499.32 342 500 C342.350625 498.865625 342.70125 497.73125 343.0625 496.5625 C353.63610387 465.27821333 369.99286723 435.9550715 396 415 C396.99 414.67 397.98 414.34 399 414 C399.46148438 414.93457031 399.92296875 415.86914062 400.3984375 416.83203125 C402.17833915 420.42569767 403.98189264 424.0071437 405.78955078 427.58691406 C406.59469285 429.19200164 407.39259391 430.8007425 408.18310547 432.41308594 C413.64668716 443.55582837 419.46359662 452.97238834 428 462 C428.59167969 462.6703125 429.18335938 463.340625 429.79296875 464.03125 C440.30678671 475.45366951 456.16133002 483.35743841 470 490 C470 490.66 470 491.32 470 492 C470.66 492 471.32 492 472 492 C471.38467462 495.77985593 469.66092285 498.09769676 467.375 501.125 C466.65570312 502.09179688 465.93640625 503.05859375 465.1953125 504.0546875 C464.47085938 505.02664063 463.74640625 505.99859375 463 507 C454.75645308 517.04163704 454.75645308 517.04163704 452 529 C452.66 529 453.32 529 454 529 C454.23589844 528.29101562 454.47179687 527.58203125 454.71484375 526.8515625 C456.22926336 523.49130015 458.15804701 521.16702523 460.5625 518.375 C461.46942063 517.31437516 462.37565643 516.2531644 463.28125 515.19140625 C463.96574219 514.39307373 463.96574219 514.39307373 464.6640625 513.57861328 C466.67996956 511.19651258 468.61484121 508.75050247 470.5625 506.3125 C480.7728683 493.84510292 493.04004659 484.67252958 505.95825195 475.2175293 C511.30911276 471.2875036 516.51412814 467.25842959 521.60546875 462.99609375 C523.9910603 461.00745218 526.42612957 459.09738459 528.875 457.1875 C545.43301281 444.16797004 545.43301281 444.16797004 557 427 C557.16750414 424.33290931 557.16750414 424.33290931 557 422 C554.063928 424.15887647 551.64031894 426.35585132 549.375 429.1875 C541.58868017 438.45122411 532.07613765 445.13948236 520 447 C500.9667485 447.98284913 485.48967812 445.48928904 470.6875 432.5625 C463.50867502 425.95998557 458.11681806 419.15027552 453.75 410.4375 C453.32976563 409.62603516 452.90953125 408.81457031 452.4765625 407.97851562 C451.2891354 405.66527321 450.13817259 403.33779824 449 401 C448.67064453 400.34918457 448.34128906 399.69836914 448.00195312 399.02783203 C446.16230424 395.17228672 445.98450093 393.08586487 447 389 C451.0812095 388.17659012 455.1652886 387.36834252 459.25 386.5625 C460.95929688 386.21735352 460.95929688 386.21735352 462.703125 385.86523438 C502.48816542 378.06646225 543.78637432 384.07801394 577.87890625 406.49609375 C593.24333345 417.0480712 605.15563364 430.26835773 615 446 C615.66644531 447.02738281 616.33289063 448.05476563 617.01953125 449.11328125 C621.77746361 456.773656 628 467.7432252 628 477 C606.95151016 483.71760314 580.48165513 481.64164702 560.07446289 473.94482422 C556.00376671 472.44771415 553.29185478 471.53262673 549 473 C573.29473003 486.66578564 602.1577793 486.98717337 629 483 C639.07262577 509.188827 631.83695593 547.35913594 621.4921875 572.70703125 C612.64167631 592.23839495 601.20967695 608.89331382 586 624 C585.41283203 624.58442871 584.82566406 625.16885742 584.22070312 625.77099609 C576.38688315 633.48579394 568.29870903 640.11737959 559 646 C558.03707031 646.61359375 557.07414063 647.2271875 556.08203125 647.859375 C530.54468166 663.43681362 501.74994487 669.38360079 472.13378906 669.31567383 C469.26849023 669.31252035 466.40423415 669.33603564 463.5390625 669.36132812 C444.38901566 669.42698036 424.01193106 667.5266814 407 658 C408.30888367 651.95899846 409.75246783 645.9724287 411.31640625 639.9921875 C414.37920715 626.58587044 414.67030624 611.02451783 410 598 C409.58234375 596.82630859 409.58234375 596.82630859 409.15625 595.62890625 C404.60351427 584.30593851 396.83131217 574.70419514 386 569 C383.53951544 568.09111938 383.53951544 568.09111938 381 568 C379.1746875 567.814375 379.1746875 567.814375 377.3125 567.625 C371.88479857 567.71769319 367.39201215 569.92403405 363 573 C361.00902516 575.15688941 359.96949946 577.24369048 359 580 C358.77828125 580.59941406 358.5565625 581.19882812 358.328125 581.81640625 C353.54952641 598.3154865 357.38822174 618.09277712 365 633 C370.33501136 642.36253634 376.47139868 649.30020729 385.390625 655.3125 C385.97690674 655.70800049 386.56318848 656.10350098 387.16723633 656.51098633 C388.85797032 657.63464474 390.56729112 658.73018508 392.27734375 659.82421875 C395.19944382 662.15938337 396.35775181 663.32115728 397 667 C395.34839383 671.0625715 392.59028714 674.47758421 390 678 C389.37996094 678.845625 388.75992188 679.69125 388.12109375 680.5625 C377.41972636 694.30045892 364.72497273 706.68039701 350 716 C349.11562256 716.57089355 349.11562256 716.57089355 348.21337891 717.15332031 C320.38293737 735.00963045 289.3625558 744.48995351 256.1875 744.3125 C255.11742203 744.30976578 255.11742203 744.30976578 254.02572632 744.30697632 C205.19336293 744.09872295 158.49149543 730.05583517 123.48852539 694.85498047 C113.30648667 684.25481875 106.01121923 672.34597693 100 659 C99.52949219 657.97261719 99.05898438 656.94523438 98.57421875 655.88671875 C96.10789566 650.24395477 94.07895461 644.48068118 92.1875 638.625 C91.96811768 637.95855469 91.74873535 637.29210937 91.52270508 636.60546875 C90.27262946 632.59230712 89.91348558 629.1784622 90 625 C90.76328613 624.8047876 91.52657227 624.6095752 92.31298828 624.40844727 C119.58997298 617.35715659 146.57644139 608.68217022 169 591 C169.77988281 590.4225 170.55976563 589.845 171.36328125 589.25 C182.46846242 580.81660546 192.98357209 570.42767383 201 559 C201.5671875 558.2265625 202.134375 557.453125 202.71875 556.65625 C204.53570982 554.13800744 206.28104047 551.58607912 208 549 C208.60070312 548.09636719 209.20140625 547.19273437 209.8203125 546.26171875 C216.07354504 536.25925371 222.6532689 522.09448407 220 510 C218.56658594 508.21559741 218.56658594 508.21559741 217 507 C216.90203125 508.01578125 216.8040625 509.0315625 216.703125 510.078125 C214.19036065 534.02827542 202.94398865 551.24745228 186.48876953 568.44384766 C185.47704341 569.50136526 184.47036958 570.56373477 183.46826172 571.63037109 C161.13921871 595.33800796 132.73339 607.54268759 101.6875 615.875 C100.8931958 616.090354 100.0988916 616.30570801 99.28051758 616.52758789 C95.43574261 617.52674118 92.00978115 618.27212088 88 618 C86.43920222 614.41278829 85.52509152 611.041614 84.875 607.1875 C84.70742188 606.21167969 84.53984375 605.23585938 84.3671875 604.23046875 C84.24601562 603.49441406 84.12484375 602.75835938 84 602 C82.76895845 605.68400584 83.09232748 608.91474976 83.4375 612.75 C83.53933594 613.92046875 83.64117187 615.0909375 83.74609375 616.296875 C83.87177734 617.63492187 83.87177734 617.63492187 84 619 C71.63346362 622.7856744 57.93855372 622.20992444 45.125 622.1875 C44.0743486 622.18609512 44.0743486 622.18609512 43.00247192 622.18466187 C32.53993382 622.15444182 22.31561372 621.90943111 12 620 C10.72116943 619.77401123 10.72116943 619.77401123 9.41650391 619.54345703 C-25.19203038 613.26798513 -55.78763977 597.28753472 -82 574 C-83.15242188 573.04673828 -83.15242188 573.04673828 -84.328125 572.07421875 C-89.35496735 567.90117214 -93.13951701 563.24957511 -97 558 C-97.92232422 556.87078125 -97.92232422 556.87078125 -98.86328125 555.71875 C-122.99387874 525.15655037 -130.38020656 479.13250476 -126.74072266 441.30517578 C-126.09498784 436.13829614 -125.12319547 431.08284769 -124 426 C-123.77183594 424.91976563 -123.54367188 423.83953125 -123.30859375 422.7265625 C-118.65628162 402.46906626 -109.33791492 384.05824416 -96.5625 367.75 C-96.13227539 367.16404053 -95.70205078 366.57808105 -95.25878906 365.97436523 C-93.94140625 364.359375 -93.94140625 364.359375 -91 362 C-88.23748528 362.19329871 -85.70837839 362.50336313 -83 363 C-82.32909836 363.12109131 -81.65819672 363.24218262 -80.96696472 363.36694336 C-79.59541127 363.62019076 -78.22445115 363.87666905 -76.85404968 364.13607788 C-66.58412277 366.03603774 -56.61135295 366.47903152 -46.1875 366.375 C-45.3616037 366.37067963 -44.5357074 366.36635925 -43.68478394 366.36190796 C-11.80220734 366.50398341 -11.80220734 366.50398341 16 353 C18.93253723 348.64849315 19.8070222 345.20080972 19 340 C16.50112244 335.19719277 13.35488349 331.28746108 8.0625 329.51953125 C7.381875 329.34808594 6.70125 329.17664063 6 329 C5.21625 328.79761719 4.4325 328.59523438 3.625 328.38671875 C-11.70326199 325.18607314 -27.89891436 326.26972099 -43 330 C-44.03511719 330.23203125 -45.07023438 330.4640625 -46.13671875 330.703125 C-60.73451013 334.51612044 -75.19424553 342.60130077 -86.52734375 352.515625 C-89 354 -89 354 -91.72265625 353.984375 C-96.15001706 352.65458367 -100.29528428 350.91283044 -104.5 349 C-105.3863916 348.59700684 -106.2727832 348.19401367 -107.18603516 347.77880859 C-143.48438921 330.88163889 -167.90372172 300.49074419 -181.8359375 263.37890625 C-183.81631472 257.63049586 -185.54624866 251.90511392 -187 246 C-187.18336914 245.31953613 -187.36673828 244.63907227 -187.55566406 243.93798828 C-193.80730702 220.28012114 -193.88727533 191.51154071 -187 168 C-186.71116943 166.95392578 -186.71116943 166.95392578 -186.41650391 165.88671875 C-173.83043336 120.54742369 -143.82756442 77.02960511 -106 49 C-105.06929688 48.25234375 -104.13859375 47.5046875 -103.1796875 46.734375 C-77.48251236 26.25391963 -34.46751147 -1.11185521 0 0 Z " fill="#FBFDFD" transform="translate(340,268)"/>
<path d="M0 0 C3.85885432 0.00314042 7.71692442 -0.02031628 11.57568359 -0.0456543 C33.95047545 -0.1029326 56.18469309 1.59317561 78.21240234 5.62817383 C79.39479492 5.83982178 80.5771875 6.05146973 81.79541016 6.26953125 C118.47895537 12.99061002 153.85239702 24.22853141 187.52490234 40.31567383 C188.48428711 40.77345215 189.44367188 41.23123047 190.43212891 41.70288086 C203.94031522 48.19644969 216.94157349 55.1715645 229.52490234 63.31567383 C230.188125 63.74090332 230.85134766 64.16613281 231.53466797 64.60424805 C240.55485875 70.40580992 249.13229687 76.64268726 257.52490234 83.31567383 C258.83974609 84.33854492 258.83974609 84.33854492 260.18115234 85.38208008 C274.36538452 96.63974628 287.79306186 109.52187351 299.52490234 123.31567383 C300.27642578 124.1896582 301.02794922 125.06364258 301.80224609 125.96411133 C308.44834574 133.7966395 314.64094396 141.89552649 320.52490234 150.31567383 C321.02892578 151.0369043 321.53294922 151.75813477 322.05224609 152.5012207 C344.5517725 185.07223087 359.80586189 221.10348828 365.52490234 260.31567383 C365.83234375 262.23959961 365.83234375 262.23959961 366.14599609 264.20239258 C369.92747092 290.22876301 369.53281463 320.93484369 362.52490234 346.31567383 C357.80419936 344.8965668 353.60886217 342.86888877 349.27490234 340.56567383 C342.46180176 337.01800946 335.57154864 334.45781824 328.20166016 332.30688477 C326.28233219 331.72606908 324.39858248 331.03015928 322.52490234 330.31567383 C321.3186616 326.6969516 321.82254466 326.06297185 323.33740234 322.69067383 C330.57423637 306.54495748 330.30456848 284.10072799 324.06787109 267.71411133 C313.52746043 244.49852329 297.57972892 231.43819737 276.52490234 218.31567383 C233.33463408 191.23433433 233.33463408 191.23433433 227.91943359 173.31176758 C226.07683051 163.98929059 228.00706981 156.22955329 232.78662109 148.19458008 C238.45538243 140.56183843 249.39650795 135.38682214 258.52490234 133.31567383 C258.52490234 132.65567383 258.52490234 131.99567383 258.52490234 131.31567383 C243.77397409 130.51107774 230.35686011 138.87476748 219.52490234 148.31567383 C214.34103588 153.13787519 209.66285202 158.5685215 205.52490234 164.31567383 C200.47921287 162.86480708 197.98711834 159.94679098 194.64990234 156.12817383 C193.58304753 154.94250945 192.51534576 153.75760658 191.44677734 152.57348633 C190.93953125 152.00662109 190.43228516 151.43975586 189.90966797 150.85571289 C166.90720761 125.27399216 131.94505511 108.70579715 100.04760742 97.43261719 C94.79157105 95.50739387 91.04027272 93.51414963 87.12475586 89.46484375 C84.97665466 87.92186918 83.66068665 88.1740463 81.08740234 88.50317383 C78.79443359 88.70629883 78.79443359 88.70629883 76.52490234 88.31567383 C74.14965886 86.11526873 72.32379432 83.82181064 70.44677734 81.18676758 C69.81255859 80.56930664 69.17833984 79.9518457 68.52490234 79.31567383 C65.33927642 79.45874086 63.96558107 79.94385115 61.52490234 82.00317383 C59.52490234 83.31567383 59.52490234 83.31567383 57.08740234 83.00317383 C53.87620684 80.8884841 52.61507161 78.54422774 50.83349609 75.19067383 C49.27046242 72.95110319 48.077005 72.23887763 45.52490234 71.31567383 C41.10087034 71.39611077 39.09037058 71.84854789 35.64990234 74.69067383 C33.37128584 77.19131761 33.37128584 77.19131761 32.52490234 80.31567383 C29.14990234 80.00317383 29.14990234 80.00317383 25.52490234 79.31567383 C24.86490234 78.32567383 24.20490234 77.33567383 23.52490234 76.31567383 C21.52249685 76.63423834 19.52278672 76.96988615 17.52490234 77.31567383 C16.76177734 77.43942383 15.99865234 77.56317383 15.21240234 77.69067383 C14.65552734 77.89692383 14.09865234 78.10317383 13.52490234 78.31567383 C13.19490234 79.30567383 12.86490234 80.29567383 12.52490234 81.31567383 C5.93812548 80.55566111 5.93812548 80.55566111 3.49365234 79.13598633 C2.84396484 78.8652832 2.19427734 78.59458008 1.52490234 78.31567383 C0.45240234 79.05817383 -0.62009766 79.80067383 -1.72509766 80.56567383 C-5.6652866 83.25969698 -8.80519423 83.77153202 -13.53759766 84.19067383 C-36.52897583 86.28856817 -64.00985169 96.898208 -81.57275391 111.93286133 C-83.7276385 113.49924561 -84.81658822 114.09530356 -87.47509766 114.31567383 C-89.98017113 113.74267426 -92.3901617 113.10125302 -94.85009766 112.37817383 C-117.05658474 106.43243602 -140.5676426 112.70596819 -160.13134766 123.89770508 C-178.75465971 135.13966506 -192.21388512 151.26381182 -197.57275391 172.60083008 C-197.87052734 173.82672852 -198.16830078 175.05262695 -198.47509766 176.31567383 C-200.36615234 176.37174805 -200.36615234 176.37174805 -202.29541016 176.42895508 C-223.13327602 177.15964918 -242.60668057 179.87464143 -262.47509766 186.31567383 C-263.56435547 186.66758789 -264.65361328 187.01950195 -265.77587891 187.38208008 C-271.96825636 189.52387199 -277.83431402 192.28337023 -283.72509766 195.14379883 C-286.47509766 196.31567383 -286.47509766 196.31567383 -289.47509766 196.31567383 C-293.15775024 179.09463659 -285.08852431 158.07832624 -278.47509766 142.31567383 C-278.19762695 141.64600586 -277.92015625 140.97633789 -277.63427734 140.28637695 C-276.80187928 138.3209662 -275.92939485 136.37975848 -275.03759766 134.44067383 C-274.52326172 133.30887695 -274.00892578 132.17708008 -273.47900391 131.01098633 C-270.44992841 126.93679121 -267.26702492 126.75954091 -262.43115234 125.99072266 C-242.49091831 123.33277498 -222.90610245 125.88611346 -203.47509766 130.31567383 C-204.43418181 127.87525374 -204.97138281 126.5842642 -207.32714844 125.328125 C-212.6305025 123.75743099 -217.88269475 122.47799904 -223.35009766 121.62817383 C-224.56741577 121.43819824 -224.56741577 121.43819824 -225.80932617 121.24438477 C-237.00521328 119.64543409 -256.14726741 117.1517587 -266.47509766 122.31567383 C-265.13393959 117.57168387 -263.09868588 113.83527419 -260.22509766 109.87817383 C-259.79398682 109.27980713 -259.36287598 108.68144043 -258.91870117 108.06494141 C-253.38819498 100.5917298 -246.95091074 93.96441378 -240.47509766 87.31567383 C-239.64751953 86.44813477 -238.81994141 85.5805957 -237.96728516 84.68676758 C-232.51768767 79.07114293 -226.64941017 74.11616233 -220.47509766 69.31567383 C-219.93143555 68.8902832 -219.38777344 68.46489258 -218.82763672 68.02661133 C-208.61109282 60.09007978 -197.79557869 53.55103163 -186.47509766 47.31567383 C-185.75563965 46.91606445 -185.03618164 46.51645508 -184.29492188 46.10473633 C-155.20357912 30.01710907 -123.9318406 19.01821073 -91.76416016 10.89770508 C-89.66376778 10.36364627 -87.56946504 9.81027555 -85.47509766 9.25317383 C-72.0228045 5.77734138 -58.24449984 4.03265165 -44.47509766 2.31567383 C-43.81527893 2.22633575 -43.15546021 2.13699768 -42.47564697 2.04495239 C-28.3336518 0.1443873 -14.2546607 -0.0241362 0 0 Z " fill="#FBFDFD" transform="translate(619.47509765625,137.684326171875)"/>
<path d="M0 0 C2.80590236 0.42783066 5.1233315 0.22830702 8 0 C8.66 -0.99 9.32 -1.98 10 -3 C12.9719385 -1.87548273 15.33440687 -0.77706209 18 1 C20.14943335 1.27877399 20.14943335 1.27877399 22.4375 1.1875 C23.19933594 1.18105469 23.96117187 1.17460937 24.74609375 1.16796875 C26.93937857 1.00451771 28.88870807 0.60116513 31 0 C31.40992188 0.56589844 31.81984375 1.13179687 32.2421875 1.71484375 C32.78101563 2.44832031 33.31984375 3.18179688 33.875 3.9375 C34.40867187 4.66839844 34.94234375 5.39929688 35.4921875 6.15234375 C37.34677327 8.42493201 38.3352506 8.9293559 41.2421875 9.23828125 C46.68362444 9.51748401 46.68362444 9.51748401 51.4375 7.25 C52.2109375 6.13625 52.2109375 6.13625 53 5 C53.5775 4.2575 54.155 3.515 54.75 2.75 C55.36875 1.88375 55.36875 1.88375 56 1 C62.875 2.875 62.875 2.875 64 4 C66.75160068 3.9499709 69.49084588 3.80226118 72.23828125 3.64453125 C75 4 75 4 77 6.00390625 C78.83659003 8.25766297 78.83659003 8.25766297 81.57421875 8.2578125 C82.60160156 8.21398437 83.62898438 8.17015625 84.6875 8.125 C119.0470667 9.66082263 161.62934718 38.99770792 185 63 C185.50660156 63.47308594 186.01320313 63.94617188 186.53515625 64.43359375 C190.32604487 68.03450617 193.74154276 71.91421004 197 76 C198.175625 77.4540625 198.175625 77.4540625 199.375 78.9375 C202.19519548 84.25248379 200.06518886 89.02719109 198.4375 94.5 C194.51994148 110.17023409 197.6703745 124.51501773 205.25 138.4375 C210.79895172 147.27516234 218.05357035 153.35691319 226.6171875 159.17578125 C229.91467921 161.70025441 231.74365355 163.59833377 232.50512695 167.76196289 C232.56144287 168.8008667 232.61775879 169.83977051 232.67578125 170.91015625 C232.73975098 172.06402832 232.8037207 173.21790039 232.86962891 174.40673828 C233.86604384 201.8697253 233.86596948 228.45468851 214.5625 250.25 C213.04866947 251.84003006 211.52816709 253.42374373 210 255 C209.07960938 256.04800781 209.07960938 256.04800781 208.140625 257.1171875 C197.11862723 269.22254403 176.78908184 278.20406236 160.49609375 279.14453125 C158.30886112 279.18218314 156.17759917 279.20901063 154 279 C153 278 153 278 152.9453125 275.28125 C153.82428748 256.78455914 157.8268734 238.43809967 164 221 C164.34289062 219.97003906 164.68578125 218.94007813 165.0390625 217.87890625 C171.82782943 198.70918668 182.2644517 179.35878736 198.30859375 166.4296875 C200.91294542 164.22831866 202.90631263 161.68253695 205 159 C185.48529889 161.35424447 163.37488645 187.37915158 151.8828125 201.76953125 C149.39724268 205.06366552 147.15001784 208.47943301 145 212 C144.63825684 212.58716797 144.27651367 213.17433594 143.90380859 213.77929688 C141.08417024 218.42457361 138.50217461 223.17735028 136 228 C135.5654248 228.83644043 135.13084961 229.67288086 134.68310547 230.53466797 C126.98091183 245.55326154 121.17363907 260.9479561 116 277 C103.24609449 277.29737085 91.2093401 274.50355027 79 271.0625 C78.14051758 270.82192871 77.28103516 270.58135742 76.39550781 270.33349609 C69.97985445 268.46050314 63.97459778 265.98729889 58 263 C58 231.98 58 200.96 58 169 C59.32 168.34 60.64 167.68 62 167 C65.52778338 169.61583937 67.9519766 172.01281044 70.25 175.75 C71.13945313 177.18666016 71.13945313 177.18666016 72.046875 178.65234375 C73.47923136 181.10740256 74.85826278 183.56437779 76.203125 186.06640625 C81.64070154 196.16227028 85.96151158 203.22344181 97.19140625 207.30859375 C105.23430818 209.28855709 114.65899548 209.14074454 122 205 C128.01809896 200.52660596 132.97314568 195.90122785 136 189 C136.29519531 188.33226562 136.59039063 187.66453125 136.89453125 186.9765625 C142.02080453 173.25968513 139.47834416 157.99419328 133.66796875 145.02734375 C127.01794022 132.24918767 115.58262916 121.79154143 103 115 C101.85917969 114.33291016 101.85917969 114.33291016 100.6953125 113.65234375 C88.8180904 107.113873 75.57715442 104.56336502 62.21875 103.359375 C59 103 59 103 58 102 C57.8396444 98.97192956 57.74039552 95.96414546 57.68359375 92.93359375 C57.66281265 92.02497086 57.64203156 91.11634796 57.62062073 90.18019104 C57.55502328 87.26604054 57.4961932 84.35179696 57.4375 81.4375 C57.39432446 79.46678709 57.35071049 77.49608374 57.30664062 75.52539062 C57.19933157 70.68369012 57.09809325 65.84189563 57 61 C56.01 60.67 55.02 60.34 54 60 C53.23932493 65.50068232 52.81162649 70.88877182 52.68359375 76.4375 C52.6524221 77.58581299 52.6524221 77.58581299 52.62062073 78.75732422 C52.55591864 81.1714698 52.49661459 83.58571181 52.4375 86 C52.39423905 87.64974903 52.35062252 89.29948878 52.30664062 90.94921875 C52.20032031 94.96605033 52.09883655 98.98297759 52 103 C50 104 50 104 46.375 104.1875 C35.57729547 105.30570888 24.43368874 110.29369329 16 117 C14.97519531 117.76570313 14.97519531 117.76570313 13.9296875 118.546875 C8.16827369 123.14724344 4.67036253 128.67333599 1 135 C0.52433594 135.75410156 0.04867187 136.50820313 -0.44140625 137.28515625 C-6.46308823 147.18947497 -7.51694357 157.8643313 -7.375 169.25 C-7.36484863 170.43440674 -7.35469727 171.61881348 -7.34423828 172.83911133 C-6.93552538 196.01059799 0.24896388 218.58855018 15.84765625 236.1328125 C17 238 17 238 16.8671875 240.00390625 C11.23484781 252.96843589 -5.65686517 260.16018421 -17.91796875 265.19921875 C-18.60503906 265.46347656 -19.29210937 265.72773438 -20 266 C-20 265.01 -20 264.02 -20 263 C-20.66 263 -21.32 263 -22 263 C-22.08975098 262.38294189 -22.17950195 261.76588379 -22.27197266 261.13012695 C-28.93333855 216.24678929 -45.71495175 175.66723726 -77.41748047 142.64990234 C-78.47133782 141.55117232 -79.51987693 140.44731609 -80.56298828 139.33837891 C-108.31555074 109.87237479 -146.9874456 92.91761069 -186.91796875 88.52734375 C-190 88 -190 88 -193 86 C-190.71456333 69.7162637 -180.10495807 56.56403469 -167.8125 46.3125 C-149.8397094 33.20067768 -125.74446224 22.44293028 -103 25 C-91.93529412 27.06470588 -91.93529412 27.06470588 -89 30 C-89.359375 32.28125 -89.359375 32.28125 -90 35 C-90.36992133 39.95125468 -90.66432893 44.44989917 -88.6875 49.0625 C-86.73854848 51.30018508 -85.05233005 52.81753955 -82.0625 53.3359375 C-81.381875 53.34882813 -80.70125 53.36171875 -80 53.375 C-78.9790625 53.41753906 -78.9790625 53.41753906 -77.9375 53.4609375 C-75.85077021 53.13898266 -75.85077021 53.13898266 -74.28515625 51.3359375 C-71.81225337 46.84111707 -72.18053861 41.95488285 -73 37 C-74.34974274 34.57437537 -75.78276864 32.72929977 -77.6875 30.71875 C-79 29 -79 29 -79 25 C-69.30772813 13.73174897 -50.70559046 9.16972156 -37 5 C-35.86546387 4.65195313 -34.73092773 4.30390625 -33.56201172 3.9453125 C-29.7965761 2.79933183 -26.02480782 1.67719368 -22.25 0.5625 C-20.42819214 0.01251343 -20.42819214 0.01251343 -18.56958008 -0.54858398 C-17.4173999 -0.88188721 -16.26521973 -1.21519043 -15.078125 -1.55859375 C-14.05106445 -1.86079834 -13.02400391 -2.16300293 -11.96582031 -2.47436523 C-7.16404851 -3.32538719 -4.04261148 -2.69507432 0 0 Z " fill="#FBFDFD" transform="translate(619,227)"/>
<path d="M0 0 C3.70520496 0.46524362 6.46935048 1.60287988 9.6953125 3.44140625 C10.57098877 3.93874268 11.44666504 4.4360791 12.34887695 4.94848633 C13.72305786 5.7474231 13.72305786 5.7474231 15.125 6.5625 C16.53688599 7.37787231 16.53688599 7.37787231 17.97729492 8.2097168 C24.64460372 12.10517772 30.97905835 16.14920602 37 21 C37.70898438 21.5465625 38.41796875 22.093125 39.1484375 22.65625 C50.38473433 31.78305049 58.30229364 45.53148762 60 60 C60.02665108 62.33318113 60.03095827 64.66687205 60 67 C59.36610352 67.06469482 58.73220703 67.12938965 58.07910156 67.19604492 C40.90519431 68.8050704 40.90519431 68.8050704 25 75 C24.31035156 75.35707031 23.62070312 75.71414063 22.91015625 76.08203125 C16.68937705 79.80397737 14.21415643 86.35753071 12 93 C11.63779934 98.52356009 11.62643058 102.36134204 15 107 C23.0994371 112.55500962 32.59077203 112.47721668 42 111 C57.94431595 106.83509802 69.69826694 93.18845032 78.546875 80.01171875 C80 78 80 78 82 77 C84.52480704 77.67881065 86.91819106 78.43483115 89.375 79.3125 C90.48512451 79.70659058 90.48512451 79.70659058 91.61767578 80.10864258 C97.89155479 82.42470072 103.89136503 85.20768689 109.875 88.1875 C110.73657715 88.61522705 111.5981543 89.0429541 112.48583984 89.48364258 C119.8826743 93.25743215 119.8826743 93.25743215 122 96 C121.86536812 103.23469218 119.74567534 109.47277101 117.1875 116.1875 C116.79151611 117.2290625 116.39553223 118.270625 115.98754883 119.34375 C102.96139553 152.50943414 80.64297805 180.26205598 51 200 C50.43361816 200.3801123 49.86723633 200.76022461 49.28369141 201.15185547 C32.15927097 212.47805033 12.78656031 219.84499261 -7 225 C-8.10118164 225.28931396 -8.10118164 225.28931396 -9.22460938 225.58447266 C-20.03675283 228.38012832 -30.95533972 230.37722071 -42 232 C-43.0513916 232.15879639 -43.0513916 232.15879639 -44.12402344 232.32080078 C-52.73171164 233.59161296 -61.23415924 234.19154124 -69.9375 234.25 C-70.80874512 234.25926514 -71.67999023 234.26853027 -72.57763672 234.27807617 C-78.75331305 234.24668695 -78.75331305 234.24668695 -81 232 C-81.5625 229.82714844 -81.5625 229.82714844 -82 227.109375 C-82.165 226.08714844 -82.33 225.06492187 -82.5 224.01171875 C-82.665 222.93535156 -82.83 221.85898437 -83 220.75 C-83.165 219.75097656 -83.33 218.75195312 -83.5 217.72265625 C-84.06163453 214.15539945 -84.55179516 210.58292874 -85 207 C-85.09147308 206.27332123 -85.18294617 205.54664246 -85.27719116 204.79794312 C-87.27429208 188.19143877 -87.3433725 171.57839555 -87.31567383 154.87963867 C-87.3097754 151.02413595 -87.32711925 147.16909764 -87.3500185 143.31367207 C-87.36470322 140.3171458 -87.36563686 137.32073455 -87.36250877 134.3241787 C-87.36302071 132.90040321 -87.36823437 131.47662109 -87.37832069 130.05288124 C-87.39061684 128.08257341 -87.38197684 126.11216821 -87.37231445 124.1418457 C-87.37325859 122.46600151 -87.37325859 122.46600151 -87.3742218 120.75630188 C-87 118 -87 118 -85.59413147 116.15066528 C-83.67284528 114.76385537 -82.35337382 114.47559357 -80.0078125 114.19140625 C-79.22696289 114.08675049 -78.44611328 113.98209473 -77.64160156 113.87426758 C-76.81112305 113.77138428 -75.98064453 113.66850098 -75.125 113.5625 C-52.01534698 110.24652137 -35.01696657 101.06019413 -19.78515625 83.4375 C-4.814978 63.3414784 -0.53889737 40.0997833 -0.9375 15.625 C-0.96519677 13.52486214 -0.98978641 11.42479031 -1.00868225 9.32455444 C-1.02634939 7.45669136 -1.05377734 5.58892803 -1.08178711 3.72119141 C-1 1 -1 1 0 0 Z " fill="#FBFDFD" transform="translate(858,395)"/>
<path d="M0 0 C14.85528338 2.69793263 31.21418708 25.00185578 39.43237305 36.66845703 C40.63997589 38.43412413 41.82348151 40.21350969 43 42 C44.08667969 43.61261719 44.08667969 43.61261719 45.1953125 45.2578125 C64.90816228 75.76400969 69.24854869 113.64428778 63 149 C62.72542969 150.75957031 62.72542969 150.75957031 62.4453125 152.5546875 C56.91833159 184.28365197 41.58239955 212.27403046 16.09375 232.28125 C13.45619925 234.02902459 10.80575369 235.53726708 8 237 C7.3596582 237.34530762 6.71931641 237.69061523 6.05957031 238.04638672 C3.92383507 239.19514593 1.77783622 240.32114239 -0.375 241.4375 C-1.05369141 241.79263672 -1.73238281 242.14777344 -2.43164062 242.51367188 C-9.23411365 245.91153079 -9.23411365 245.91153079 -13 245 C-15.93752518 241.36472538 -17.17737901 236.93140349 -18.6875 232.5625 C-30.52933438 200.02164525 -55.7230188 176.16449006 -86.56225586 161.7199707 C-119.42143421 146.7834847 -157.79132834 144.39796704 -192.546875 154.1953125 C-195.90537151 154.97794857 -198.57453683 155.38169447 -202 155 C-205.37529067 152.85208775 -205.89016608 149.67681435 -206.8125 145.9375 C-207.08707031 144.87402344 -207.36164062 143.81054688 -207.64453125 142.71484375 C-207.76183594 141.81894531 -207.87914062 140.92304687 -208 140 C-205.57906948 137.57906948 -204.96693407 137.74286564 -201.65234375 137.69140625 C-200.29906982 137.65708496 -200.29906982 137.65708496 -198.91845703 137.62207031 C-197.93474121 137.60241211 -196.95102539 137.58275391 -195.9375 137.5625 C-149.7742524 136.03848145 -101.75160797 125.73174419 -64 98 C-63.22398437 97.43796875 -62.44796875 96.8759375 -61.6484375 96.296875 C-33.95772348 75.55401286 -15.23530726 46.96521397 -4.71533203 14.22509766 C-4.05430862 12.16893132 -3.37452424 10.12049715 -2.68359375 8.07421875 C-1.77715868 5.38649665 -0.88214952 2.69576126 0 0 Z " fill="#FBFDFD" transform="translate(987,497)"/>
<path d="M0 0 C0.67882233 0.00149048 1.35764465 0.00298096 2.05703735 0.0045166 C10.30240758 0.03704607 18.47036509 0.25194921 26.625 1.5625 C27.32955322 1.67166748 28.03410645 1.78083496 28.76000977 1.89331055 C33.0056892 2.70845106 35.32346415 3.86805455 37.9375 7.3125 C39.0890787 9.46485542 40.16675448 11.65760379 41.1875 13.875 C49.97760763 32.27250721 64.16256698 44.04364676 81.9375 53.3125 C85.41075181 54.4702506 88.29817448 54.38116652 91.9375 54.3125 C91.9375 53.6525 91.9375 52.9925 91.9375 52.3125 C90.90882813 52.16167969 90.90882813 52.16167969 89.859375 52.0078125 C80.24225969 49.71924763 71.30541247 43.71236558 63.9375 37.3125 C63.12796875 36.65765625 62.3184375 36.0028125 61.484375 35.328125 C52.84636888 28.06796035 45.787113 19.01010445 41.9375 8.3125 C42.2675 7.3225 42.5975 6.3325 42.9375 5.3125 C54.44371123 9.31466043 65.46112994 13.68380968 76.22265625 19.40869141 C77.73943865 20.20811175 79.27479887 20.97206452 80.8125 21.73046875 C106.66555018 34.84935285 126.91673645 58.37736962 140.9375 83.3125 C141.32502441 84.00005371 141.71254883 84.68760742 142.11181641 85.39599609 C162.9375 122.6839641 162.9375 122.6839641 162.9375 137.3125 C155.07741722 138.81716322 147.52181609 139.6286151 139.5234375 139.6484375 C138.47787689 139.65672577 137.43231628 139.66501404 136.35507202 139.67355347 C133.00740103 139.69271496 129.66021683 139.69289974 126.3125 139.6875 C125.1718811 139.68762085 124.03126221 139.6877417 122.8560791 139.68786621 C106.23151091 139.66270673 90.18841114 139.14548274 73.9375 135.3125 C73.19902832 135.1470166 72.46055664 134.9815332 71.69970703 134.81103516 C67.38172104 133.82707598 63.16212077 132.63700232 58.9375 131.3125 C57.74898438 130.95542969 56.56046875 130.59835937 55.3359375 130.23046875 C22.06223999 119.75801027 -10.25659804 99.76138635 -31.0625 71.3125 C-31.65490479 70.5078833 -31.65490479 70.5078833 -32.25927734 69.68701172 C-42.16857472 56.06124491 -49.01091092 41.29204955 -54.25 25.3125 C-54.56606201 24.36238037 -54.88212402 23.41226074 -55.20776367 22.43334961 C-55.48338135 21.54784424 -55.75899902 20.66233887 -56.04296875 19.75 C-56.28942139 18.96496094 -56.53587402 18.17992187 -56.78979492 17.37109375 C-57.0625 15.3125 -57.0625 15.3125 -55.0625 12.3125 C-45.97458173 7.43700737 -36.08790428 4.54262026 -26.0625 2.3125 C-24.88675415 2.04433472 -24.88675415 2.04433472 -23.68725586 1.77075195 C-15.78847143 0.13110599 -8.0482669 -0.03354061 0 0 Z " fill="#FBFDFD" transform="translate(391.0625,366.6875)"/>
<path d="M0 0 C0 15.18 0 30.36 0 46 C-3.3 47.65 -6.6 49.3 -10 51 C-12.39697276 55.79394553 -12.50031009 57.74674407 -12 63 C-9.11430451 66.57826241 -5.37071421 66.50520216 -1 67 C0.68503699 68.68503699 0.11965983 70.76259884 0.12442017 73.01094055 C0.11902725 74.08555794 0.11902725 74.08555794 0.11352539 75.18188477 C0.11367142 75.93305573 0.11381744 76.68422668 0.1139679 77.4581604 C0.11326863 79.95260459 0.10547564 82.44697503 0.09765625 84.94140625 C0.09579212 86.66633564 0.09436819 88.39126557 0.09336853 90.11619568 C0.08954297 94.66512503 0.07971238 99.21402267 0.06866455 103.76293945 C0.05845124 108.40120006 0.05387108 113.03946577 0.04882812 117.67773438 C0.03809014 126.78517022 0.02101327 135.89258248 0 145 C-3.58828192 143.83873601 -6.7180543 142.77608248 -9.83984375 140.64453125 C-10.50757813 140.18989502 -11.1753125 139.73525879 -11.86328125 139.2668457 C-12.54777344 138.78691162 -13.23226562 138.30697754 -13.9375 137.8125 C-14.64390625 137.32289795 -15.3503125 136.8332959 -16.078125 136.32885742 C-20.88215935 132.94029748 -25.08245885 129.40723379 -29 125 C-28.69707031 124.46632813 -28.39414062 123.93265625 -28.08203125 123.3828125 C-21.43235688 111.55662239 -16.94092943 101.69299938 -16 88 C-16.66 88 -17.32 88 -18 88 C-18.07476563 88.62003906 -18.14953125 89.24007812 -18.2265625 89.87890625 C-19.83582669 100.71777388 -23.65541719 111.03244031 -30 120 C-37.5990091 117.6425951 -41.06658264 110.53943681 -44.70703125 103.875 C-48.43646699 96.17064666 -50.89462918 88.28112521 -53 80 C-53.1757959 79.39414062 -53.3515918 78.78828125 -53.53271484 78.1640625 C-56.27393406 65.46909535 -55.57173269 48.8026563 -50 37 C-49.72623535 36.401875 -49.4524707 35.80375 -49.17041016 35.1875 C-41.65117544 19.01605102 -31.10573848 8.07022807 -14.125 1.5625 C-3.73251979 -1.86625989 -3.73251979 -1.86625989 0 0 Z " fill="#FBFDFD" transform="translate(671,342)"/>
<path d="M0 0 C18.54712636 1.19286497 35.00944625 7.08134907 50.015625 18.1171875 C50.74652344 18.64957031 51.47742188 19.18195313 52.23046875 19.73046875 C61.00974542 26.73650538 68.90147177 38.01083587 71.015625 49.1171875 C72.19036261 60.70253087 71.96023168 72.76073452 64.328125 82.1171875 C59.82605826 87.18783823 54.23867511 89.1419979 47.578125 89.55078125 C46.05738595 89.56776545 44.53639191 89.56896091 43.015625 89.5546875 C42.26023437 89.57466797 41.50484375 89.59464844 40.7265625 89.61523438 C34.26466868 89.60968292 29.19028511 88.00863783 24.35717773 83.60668945 C20.4335303 79.29436409 17.76467101 74.38065379 15.078125 69.2421875 C9.79844677 58.16746415 9.79844677 58.16746415 1.10406494 50.19836426 C-1.24984637 49.03382634 -3.06967336 47.92248657 -4.984375 46.1171875 C-6.11647225 42.76705442 -5.96791455 39.58079611 -5.8359375 36.07421875 C-5.82607315 34.62700691 -5.82607315 34.62700691 -5.81600952 33.15055847 C-5.79520614 31.11710511 -5.75536788 29.08376885 -5.69775391 27.05102539 C-5.60937939 23.92984262 -5.57485738 20.81173354 -5.55078125 17.68945312 C-5.52394079 15.71349701 -5.49409691 13.73757892 -5.4609375 11.76171875 C-5.44616364 10.8252803 -5.43138977 9.88884186 -5.41616821 8.92402649 C-5.39049774 8.05940292 -5.36482727 7.19477936 -5.33837891 6.30395508 C-5.31869049 5.54182205 -5.29900208 4.77968903 -5.27871704 3.99446106 C-4.7339582 0.52006315 -3.32803517 0.13068201 0 0 Z " fill="#FBFDFD" transform="translate(681.984375,340.8828125)"/>
<path d="M0 0 C11.85746412 5.92873206 17.88927147 19.35217468 22.171875 31.2578125 C26.45727373 47.06527385 25.3557024 66.28859519 18 81 C12.65381615 79.57490014 8.90738648 77.09038516 4.5625 73.8125 C3.89798828 73.31419678 3.23347656 72.81589355 2.54882812 72.30249023 C-10.95998601 62.04277881 -19.22533542 49.01445259 -22 32 C-22.71760413 21.47053946 -21.9983731 11.39804773 -15 3 C-10.06210916 -1.47855215 -6.18561401 -1.70830134 0 0 Z " fill="#FBFDFD" transform="translate(724,842)"/>
<path d="M0 0 C0.79196274 0.00142502 1.58392548 0.00285004 2.39988708 0.00431824 C3.74621971 -0.00029671 3.74621971 -0.00029671 5.11975098 -0.00500488 C6.09061142 0.00218063 7.06147186 0.00936615 8.06175232 0.01676941 C9.05537277 0.01722763 10.04899323 0.01768585 11.07272339 0.01815796 C13.17511691 0.02118206 15.27750816 0.02907306 17.37986755 0.04142761 C20.61049776 0.05968251 23.84084156 0.06193736 27.07151794 0.06169128 C29.1099319 0.06660636 31.1483439 0.07243463 33.18675232 0.07926941 C34.15963699 0.08038223 35.13252167 0.08149506 36.1348877 0.0826416 C37.02929062 0.08902145 37.92369354 0.09540131 38.84519958 0.10197449 C39.63636673 0.10578629 40.42753387 0.10959808 41.24267578 0.11352539 C43.05784607 0.24723816 43.05784607 0.24723816 44.05784607 1.24723816 C44.20630857 3.68959935 44.29324984 6.1069698 44.33909607 8.55192566 C44.36623436 9.6727076 44.36623436 9.6727076 44.3939209 10.81613159 C44.4324959 12.41975827 44.46900621 14.02343566 44.50367737 15.62715149 C44.5933432 19.75728587 44.69817654 23.88702018 44.80393982 28.01676941 C44.82439865 28.82393906 44.84485748 29.6311087 44.86593628 30.46273804 C45.06399099 38.00501146 45.42060057 45.53265948 45.87425232 53.06364441 C45.99297408 55.1223302 46.05784607 57.18513195 46.05784607 59.24723816 C38.21135212 56.95151957 30.44181653 54.44696378 22.68284607 51.87223816 C21.54073669 51.49841003 20.39862732 51.12458191 19.22190857 50.73942566 C-1.23940095 43.94999114 -1.23940095 43.94999114 -3.94215393 41.24723816 C-4.05564554 38.38629599 -4.10633885 35.5504036 -4.11012268 32.68864441 C-4.11345108 31.82915695 -4.11677948 30.96966949 -4.12020874 30.08413696 C-4.12528163 28.26245155 -4.12761695 26.4407568 -4.12745667 24.61906433 C-4.12964196 21.82504526 -4.14779037 19.03142159 -4.16676331 16.23747253 C-4.16969733 14.47119785 -4.17168207 12.70492128 -4.17262268 10.93864441 C-4.1798082 10.09902664 -4.18699371 9.25940887 -4.19439697 8.39434814 C-4.1632743 0.52998903 -4.1632743 0.52998903 0 0 Z " fill="#FBFDFD" transform="translate(680.9421539306641,567.7527618408203)"/>
<path d="M0 0 C2.36299622 2.51068349 3.41644839 4.96028266 4.5 8.2109375 C4.3125 11.6484375 4.3125 11.6484375 1.9375 14.3359375 C-18.44123899 28.47628701 -51.35478423 28.38249368 -74.65625 24.29296875 C-80.01956081 23.15257405 -85.36663141 21.97423532 -90.6875 20.6484375 C-90.6875 19.6584375 -90.6875 18.6684375 -90.6875 17.6484375 C-78.92590474 7.43760052 -63.64097888 0.48839335 -48.6875 -3.3515625 C-47.924375 -3.56425781 -47.16125 -3.77695312 -46.375 -3.99609375 C-32.54647953 -7.52948409 -11.86891644 -9.50612289 0 0 Z " fill="#FBFDFD" transform="translate(348.6875,604.3515625)"/>
<path d="M0 0 C7.40904721 0.95745806 7.40904721 0.95745806 10.91796875 2.26953125 C11.60511963 2.51670898 12.29227051 2.76388672 13.00024414 3.01855469 C13.72203857 3.28055664 14.44383301 3.54255859 15.1875 3.8125 C24.20882465 6.96235369 33.29371087 8.84556272 42.67626953 10.56054688 C53.63254729 12.63254729 53.63254729 12.63254729 55 14 C54.65283539 19.29426036 53.76892153 24.18483067 52.453125 29.32421875 C52.18145508 30.39115967 51.90978516 31.45810059 51.62988281 32.55737305 C51.42202148 33.36343994 51.21416016 34.16950684 51 35 C43.89755001 35.02526787 36.79511152 35.04283201 29.69262695 35.05493164 C27.27432828 35.05997349 24.85603267 35.06680678 22.43774414 35.07543945 C18.97020717 35.08751157 15.50271034 35.09322963 12.03515625 35.09765625 C10.94662857 35.10281754 9.85810089 35.10797882 8.73658752 35.11329651 C7.23514442 35.11340981 7.23514442 35.11340981 5.70336914 35.11352539 C4.37433311 35.11685631 4.37433311 35.11685631 3.01844788 35.12025452 C1 35 1 35 0 34 C-0.08847743 31.47905924 -0.11527301 28.98569107 -0.09765625 26.46484375 C-0.0962413 25.71159317 -0.09482635 24.95834259 -0.09336853 24.18226624 C-0.08775376 21.7673044 -0.07519883 19.35243399 -0.0625 16.9375 C-0.0574869 15.30403779 -0.05292366 13.67057414 -0.04882812 12.03710938 C-0.03777954 8.02470415 -0.02050506 4.01236759 0 0 Z " fill="#FBFDFD" transform="translate(677,495)"/>
<path d="M0 0 C1.80080412 6.05725023 0.2608175 11.29375857 -2 17 C-5.79645371 23.81991813 -10.87945465 30.43972733 -18 34 C-20.60698521 34.01461315 -23.15088597 33.94990836 -25.75 33.8125 C-26.45382812 33.79380859 -27.15765625 33.77511719 -27.8828125 33.75585938 C-32.94597899 33.48764331 -35.9570913 32.27604438 -40 29 C-42.4561195 25.26242685 -42.29077678 21.56997356 -41.6484375 17.2734375 C-40.1828104 12.13491358 -37.027114 9.19784009 -32.5078125 6.52734375 C-22.31985022 1.57766802 -11.25557077 0 0 0 Z " fill="#FBFDFD" transform="translate(917,468)"/>
<path d="M0 0 C3.34319241 1.57853827 5.13906274 2.72120577 7 6 C7.81641135 9.87795389 8.26014503 12.2195649 7 16 C0.57429353 16.36371923 0.57429353 16.36371923 -1.875 14.8125 C-3.42172788 12.32054953 -3.93381654 10.97825576 -4 8 C-2.88702785 5.20196722 -1.50593638 2.60468824 0 0 Z " fill="#FBFDFD" transform="translate(535,259)"/>
</svg>
